<!DOCTYPE svg PUBLIC "-//W3C//DTD SVG 1.1//EN" "http://www.w3.org/Graphics/SVG/1.1/DTD/svg11.dtd">
<!-- Uploaded to: SVG Repo, www.svgrepo.com, Transformed by: SVG Repo Mixer Tools -->
<svg width="800px" height="800px" viewBox="-2.4 -2.4 28.80 28.80" xmlns="http://www.w3.org/2000/svg" fill="#00000000" transform="matrix(1, 0, 0, 1, 0, 0)rotate(0)" stroke="#00000000" stroke-width="0.00024000000000000003">
<g id="SVGRepo_bgCarrier" stroke-width="0" transform="translate(0,0), scale(1)">
<path transform="translate(-2.4, -2.4), scale(0.8999999999999999)" d="M16,28.227203618202893C18.641007322912845,28.25925808869346,21.411430061969728,27.938339112283558,23.486807217822996,26.30470609666466C25.5250648824473,24.70029168655252,26.341293264011888,22.08273244696393,26.994998115870068,19.57249144788988C27.613566175098352,17.19717650479478,27.633032088182883,14.78826169370898,27.110405110036233,12.390010546622499C26.535159751898178,9.750302116523724,26.05871094273573,6.751534405638974,23.85918675269052,5.182757443990223C21.663781319974344,3.6169181229628613,18.68591854521174,4.705474408064232,16,4.465684162718908C12.942477541909062,4.192718304658361,9.812000458971735,2.341489278087969,7.050547759852632,3.6821357385409144C4.18178269240663,5.0748808450456915,2.4987109118138955,8.271545723492459,1.7672314750218714,11.375493174310833C1.0692626027623815,14.33724246326096,1.8790520420181298,17.412532650580786,3.1649129710770776,20.17037257856055C4.3332847447468055,22.676228581595847,6.302355460834643,24.65461184312886,8.644078958018529,26.12455673059677C10.858164823723413,27.51438102139018,13.386041081116884,28.195477439974624,16,28.227203618202893" fill="#7ed0ec" strokewidth="0"/>
</g>
<g id="SVGRepo_tracerCarrier" stroke-linecap="round" stroke-linejoin="round" stroke="#CCCCCC" stroke-width="0.048"/>
<g id="SVGRepo_iconCarrier"> <title>github</title> <rect width="24" height="24" fill="none"/> <path d="M12,2A10,10,0,0,0,8.84,21.5c.5.08.66-.23.66-.5V19.31C6.73,19.91,6.14,18,6.14,18A2.69,2.69,0,0,0,5,16.5c-.91-.62.07-.6.07-.6a2.1,2.1,0,0,1,1.53,1,2.15,2.15,0,0,0,2.91.83,2.16,2.16,0,0,1,.63-1.34C8,16.17,5.62,15.31,5.62,11.5a3.87,3.87,0,0,1,1-2.71,3.58,3.58,0,0,1,.1-2.64s.84-.27,2.75,1a9.63,9.63,0,0,1,5,0c1.91-1.29,2.75-1,2.75-1a3.58,3.58,0,0,1,.1,2.64,3.87,3.87,0,0,1,1,2.71c0,3.82-2.34,4.66-4.57,4.91a2.39,2.39,0,0,1,.69,1.85V21c0,.27.16.59.67.5A10,10,0,0,0,12,2Z"/> </g>
</svg>